<svg width="18" height="18" viewBox="0 0 18 18" fill="none" xmlns="http://www.w3.org/2000/svg">
<path d="M1.1794 16.2307C0.809851 16.6411 0.842988 17.2734 1.25342 17.643C1.66384 18.0125 2.29614 17.9794 2.66569 17.5689L1.1794 16.2307ZM16.9012 1.32108C16.8723 0.76955 16.4018 0.34588 15.8502 0.374784L6.86258 0.845808C6.31105 0.874712 5.88738 1.34525 5.91628 1.89677C5.94519 2.4483 6.41572 2.87197 6.96725 2.84307L14.9563 2.42438L15.375 10.4134C15.4039 10.9649 15.8744 11.3886 16.4259 11.3597C16.9775 11.3308 17.4011 10.8603 17.3722 10.3087L16.9012 1.32108ZM2.66569 17.5689L16.6457 2.04254L15.1594 0.704283L1.1794 16.2307L2.66569 17.5689Z" fill="#ADB5BD"/>
</svg>
